<?xml version="1.0" encoding="UTF-8"?>
<svg version="1.1" xmlns="http://www.w3.org/2000/svg" width="241" height="200">
<path d="M0 0 C79.53 0 159.06 0 241 0 C241 66 241 132 241 200 C161.47 200 81.94 200 0 200 C0 134 0 68 0 0 Z " fill="#FDFDFE" transform="translate(0,0)"/>
<path d="M0 0 C2.75329021 1.79562405 4.52627461 3.05254922 6 6 C6.0980731 8.86431142 6.13902649 11.69875884 6.125 14.5625 C6.12886719 15.35591797 6.13273438 16.14933594 6.13671875 16.96679688 C6.12663067 22.87336933 6.12663067 22.87336933 5 24 C2.29233297 24.34003974 -0.40044255 24.621684 -3.1171875 24.8671875 C-3.96177521 24.94744171 -4.80636292 25.02769592 -5.67654419 25.11038208 C-8.40898516 25.36946672 -11.14193087 25.62263504 -13.875 25.875 C-17.39351203 26.20277511 -20.91172292 26.5335881 -24.4296875 26.8671875 C-25.77205475 26.99429108 -25.77205475 26.99429108 -27.14154053 27.1239624 C-39.10926923 28.27510148 -51.05417943 29.64298385 -63 31 C-61.71040375 31.00364563 -60.4208075 31.00729126 -59.09213257 31.01104736 C-46.93831435 31.04799013 -34.78474967 31.10575528 -22.6311245 31.18390274 C-16.3828158 31.22341008 -10.13464874 31.25558277 -3.88623047 31.27099609 C2.14396979 31.28614093 8.17378077 31.32054859 14.20380783 31.36830902 C16.50425203 31.38314512 18.8047518 31.39104229 21.10524368 31.39188385 C24.32790876 31.39424845 27.54949366 31.42128893 30.77197266 31.45410156 C32.19833038 31.44655602 32.19833038 31.44655602 33.65350342 31.43885803 C39.41304501 31.52957421 42.56905441 32.24827356 47 36 C51.00266929 40.52293239 50.34350468 45.60843495 50.1875 51.3125 C50.125625 54.509375 50.06375 57.70625 50 61 C37.46 61.33 24.92 61.66 12 62 C11.67 63.65 11.34 65.3 11 67 C12.59321052 68.59321052 14.24925253 68.1247571 16.45629883 68.12597656 C17.40430862 68.12978333 18.35231842 68.13359009 19.32905579 68.13751221 C20.36128769 68.13853943 21.39351959 68.13956665 22.45703125 68.140625 C24.62305739 68.15895284 26.78907331 68.17852313 28.95507812 68.19921875 C32.38534732 68.22821179 35.81496158 68.25000035 39.24536133 68.25048828 C42.54568221 68.25381642 45.84447485 68.28833366 49.14453125 68.328125 C50.17069046 68.3210553 51.19684967 68.3139856 52.25410461 68.30670166 C59.25751572 68.42677255 59.25751572 68.42677255 62.64746094 71.04394531 C64.34094609 74.74515799 64.55806467 77.9743893 64.49609375 81.96875 C64.49754898 82.72667847 64.49900421 83.48460693 64.50050354 84.26550293 C64.49884907 85.86242531 64.48733837 87.45936438 64.46655273 89.05615234 C64.43758851 91.49255496 64.44595364 93.92678026 64.45898438 96.36328125 C64.45274636 97.91928135 64.44435491 99.47527461 64.43359375 101.03125 C64.43652939 101.75534058 64.43946503 102.47943115 64.44248962 103.22546387 C64.36066695 107.63914591 63.71757877 110.48894637 61 114 C57.9450722 115.5274639 54.7236686 115.23991832 51.3671875 115.31640625 C50.61535187 115.33718735 49.86351624 115.35796844 49.08889771 115.37937927 C46.68435915 115.44482705 44.27971033 115.50373738 41.875 115.5625 C40.24608229 115.60568977 38.61717578 115.64930421 36.98828125 115.69335938 C32.99230085 115.80050351 28.99620941 115.90178433 25 116 C24.67 117.65 24.34 119.3 24 121 C26.57211322 122.28605661 28.56906966 122.21043941 31.4453125 122.31640625 C32.52167969 122.35830078 33.59804687 122.40019531 34.70703125 122.44335938 C35.83496094 122.48267578 36.96289062 122.52199219 38.125 122.5625 C39.26066406 122.60568359 40.39632812 122.64886719 41.56640625 122.69335938 C44.37747768 122.7996604 47.18863945 122.90169405 50 123 C50.0875127 126.22899426 50.14056146 129.45768116 50.1875 132.6875 C50.21263672 133.59951172 50.23777344 134.51152344 50.26367188 135.45117188 C50.35752058 144.05397019 50.35752058 144.05397019 47 148 C43.88584914 150.804845 41.89528432 151.37853912 37.73121643 151.40113831 C36.66434601 151.41393326 35.59747559 151.42672821 34.49827576 151.43991089 C33.33296829 151.43855133 32.16766083 151.43719177 30.96704102 151.43579102 C29.73578491 151.44586685 28.50452881 151.45594269 27.23596191 151.46632385 C23.86183396 151.48994053 20.48825979 151.49985633 17.11408734 151.50177121 C15.00539038 151.50390475 12.89675134 151.51031142 10.78806877 151.51826286 C3.42955722 151.54600828 -3.92879139 151.55826922 -11.28735352 151.5559082 C-18.1438425 151.55410537 -24.99962375 151.58577242 -31.85593361 151.63313919 C-37.74567411 151.67237671 -43.63518336 151.68845951 -49.52505356 151.68654197 C-53.04153177 151.68577739 -56.5573807 151.69430792 -60.07372856 151.72607613 C-63.99531557 151.76053932 -67.91593266 151.74687344 -71.83764648 151.72875977 C-73.00092972 151.74561829 -74.16421295 151.76247681 -75.36274719 151.77984619 C-83.03373712 151.68960732 -83.03373712 151.68960732 -85.83522224 149.69022942 C-88.10963893 147.05487176 -89.69837864 144.52217451 -89.625 141 C-89.63789062 140.38125 -89.65078125 139.7625 -89.6640625 139.125 C-88.60528675 135.73691762 -86.72115339 133.21504016 -84 131 C-80.94399192 130.42705875 -78.67127953 130.22715848 -75.62890625 130.30078125 C-74.82895737 130.29418991 -74.02900848 130.28759857 -73.20481873 130.2808075 C-70.65652514 130.2633663 -68.11067652 130.28527126 -65.5625 130.3125 C-63.01838346 130.32383076 -60.47499785 130.32639419 -57.93089294 130.3120575 C-56.35150926 130.30471938 -54.77195521 130.31271279 -53.19276428 130.3384552 C-48.40250877 130.33562402 -45.14264172 129.66543878 -41 127 C-38.5513675 123.32705125 -38.16816562 120.26731035 -39 116 C-41.53453657 112.78045355 -43.11297305 111.29567565 -47 110 C-49.57429864 109.90064925 -52.12231109 109.85631182 -54.69677734 109.8581543 C-55.47922318 109.85467987 -56.26166901 109.85120544 -57.06782532 109.84762573 C-58.76695419 109.8402747 -60.46609263 109.83492583 -62.16523361 109.83133507 C-64.85532159 109.8241671 -67.54522744 109.80849847 -70.23526001 109.78999329 C-77.88370279 109.73753627 -85.53204521 109.68953867 -93.18066406 109.67407227 C-97.85921849 109.66399122 -102.53731377 109.63466523 -107.2156868 109.59275246 C-108.99781446 109.58044068 -110.78000696 109.57532153 -112.56217575 109.57755089 C-115.0567603 109.57990376 -117.55002715 109.55774048 -120.04443359 109.5300293 C-120.7791539 109.53663071 -121.51387421 109.54323212 -122.27085876 109.55003357 C-127.11379765 109.46176949 -129.59997444 108.44381015 -133 105 C-134.11604564 102.76790872 -134.33107534 101.23319244 -134.5 98.75 C-134.5721875 98.00234375 -134.644375 97.2546875 -134.71875 96.484375 C-133.5145477 92.32202358 -130.71018964 90.10362261 -127 88 C-122.95607424 87.17780071 -119.01268359 87.2555389 -114.8984375 87.3359375 C-113.74381012 87.33171783 -112.58918274 87.32749817 -111.39956665 87.32315063 C-107.72405148 87.31230822 -104.05034716 87.340336 -100.375 87.375 C-96.69275907 87.39904807 -93.01132506 87.41423919 -89.32901001 87.40542603 C-87.04183274 87.40085011 -84.75451625 87.41555439 -82.46762085 87.45175171 C-76.36865747 87.4760789 -76.36865747 87.4760789 -70.82275391 85.18603516 C-68.25481084 82.10629202 -68 79.98150994 -68 76 C-69.16046538 72.58307417 -69.87635881 70.61270469 -73.09448242 68.85791016 C-76.85273121 67.74821465 -80.477013 67.6448768 -84.36328125 67.5859375 C-85.15526413 67.56657135 -85.94724701 67.5472052 -86.76322937 67.5272522 C-89.27954519 67.46772768 -91.79590744 67.42118042 -94.3125 67.375 C-96.0241079 67.33679519 -97.73569709 67.29774201 -99.44726562 67.2578125 C-103.63135749 67.1620487 -107.81553931 67.0779182 -112 67 C-112.0992011 62.67673967 -112.17162265 58.35408976 -112.21972656 54.0300293 C-112.23978825 52.56051079 -112.26704478 51.09107159 -112.30175781 49.62182617 C-112.35052141 47.50419513 -112.37302161 45.38762313 -112.390625 43.26953125 C-112.41157227 41.99698486 -112.43251953 40.72443848 -112.45410156 39.41333008 C-111.91506629 35.36158165 -110.93384611 33.80345997 -108 31 C-105.77124023 29.82495117 -105.77124023 29.82495117 -103.30859375 29.04296875 C-102.37974365 28.73987793 -101.45089355 28.43678711 -100.49389648 28.12451172 C-99.48528564 27.81529785 -98.4766748 27.50608398 -97.4375 27.1875 C-96.3637915 26.84477051 -95.29008301 26.50204102 -94.18383789 26.14892578 C-90.7957546 25.076732 -87.40016797 24.03318112 -84 23 C-83.00613281 22.69755371 -82.01226562 22.39510742 -80.98828125 22.08349609 C-75.75934606 20.50312199 -70.52067226 18.95765638 -65.27734375 17.42578125 C-55.25453641 14.49682985 -45.24876153 11.51070337 -35.24172974 8.52838135 C-32.02978939 7.57137582 -28.81753517 6.61543 -25.60522461 5.65966797 C-23.6118049 5.06611936 -21.61839621 4.47253376 -19.625 3.87890625 C-18.69808853 3.60322311 -17.77117706 3.32753998 -16.81617737 3.04350281 C-15.96160446 2.78881729 -15.10703156 2.53413177 -14.2265625 2.27172852 C-13.47971191 2.04937027 -12.73286133 1.82701202 -11.96337891 1.59791565 C-7.67752168 0.29272637 -4.53765165 -0.39117687 0 0 Z " fill="#5046E2" transform="translate(156,17)"/>
<path d="M0 0 C1.58113586 0.01061211 1.58113586 0.01061211 3.19421387 0.0214386 C6.5364705 0.0492618 9.87700607 0.11197994 13.21875 0.17578125 C15.49476735 0.20087962 17.77081115 0.22369008 20.046875 0.24414062 C25.60535114 0.29478272 31.16014132 0.39266298 36.71875 0.48828125 C36.71875 11.04828125 36.71875 21.60828125 36.71875 32.48828125 C30.17100085 32.58035897 23.62551863 32.65992526 17.07763672 32.70800781 C14.85262418 32.72806171 12.62766393 32.7553119 10.40283203 32.79003906 C7.19550635 32.83883059 3.98888049 32.86131287 0.78125 32.87890625 C-0.20552734 32.89955139 -1.19230469 32.92019653 -2.20898438 32.94146729 C-9.26693117 32.94373487 -15.01205616 31.73023181 -20.15625 26.62890625 C-23.13894759 21.61631725 -24.11501863 18.32466167 -23.28125 12.48828125 C-18.93770513 1.8104001 -10.80695842 -0.27649697 0 0 Z " fill="#F6F6FC" transform="translate(176.28125,92.51171875)"/>
<path d="M0 0 C1.00073547 0.00007553 2.00147095 0.00015106 3.03253174 0.00022888 C4.64209747 0.00797081 4.64209747 0.00797081 6.28417969 0.01586914 C7.38832214 0.01728409 8.4924646 0.01869904 9.63006592 0.02015686 C13.15542311 0.02575281 16.68071671 0.0383046 20.20605469 0.05102539 C22.59667877 0.05604091 24.98730385 0.06060373 27.37792969 0.06469727 C33.23734888 0.07486987 39.09663063 0.09444622 44.95605469 0.11352539 C44.95605469 11.33352539 44.95605469 22.55352539 44.95605469 34.11352539 C42.6066658 35.28821983 41.00532264 35.31387428 38.38574219 35.42993164 C37.48984375 35.47182617 36.59394531 35.5137207 35.67089844 35.55688477 C34.73375 35.59620117 33.79660156 35.63551758 32.83105469 35.67602539 C31.88617188 35.71920898 30.94128906 35.76239258 29.96777344 35.80688477 C27.63068377 35.91311611 25.29348639 36.01515716 22.95605469 36.11352539 C24.59482208 37.75229279 26.47019935 37.24348271 28.72558594 37.24633789 C29.69689453 37.24762695 30.66820312 37.24891602 31.66894531 37.25024414 C33.20325195 37.24444336 33.20325195 37.24444336 34.76855469 37.23852539 C35.77982422 37.24239258 36.79109375 37.24625977 37.83300781 37.25024414 C39.29577148 37.24831055 39.29577148 37.24831055 40.78808594 37.24633789 C41.68245361 37.24520996 42.57682129 37.24408203 43.49829102 37.24291992 C45.7923186 37.12214565 47.75805134 36.75798292 49.95605469 36.11352539 C47.5490365 39.23938159 46.34754977 40.0537478 42.38085938 40.65942383 C40.96365327 40.70049558 39.54572876 40.72049125 38.12792969 40.72290039 C37.37892395 40.73943665 36.62991821 40.7559729 35.85821533 40.77301025 C33.47407815 40.82146049 31.09057857 40.84285311 28.70605469 40.86352539 C27.08623099 40.89168779 25.46643696 40.92161561 23.84667969 40.95336914 C19.88319054 41.02721783 15.92005471 41.07680996 11.95605469 41.11352539 C11.62605469 42.76352539 11.29605469 44.41352539 10.95605469 46.11352539 C9.96605469 46.11352539 8.97605469 46.11352539 7.95605469 46.11352539 C7.95605469 44.13352539 7.95605469 42.15352539 7.95605469 40.11352539 C8.61605469 40.11352539 9.27605469 40.11352539 9.95605469 40.11352539 C9.95605469 39.45352539 9.95605469 38.79352539 9.95605469 38.11352539 C10.61605469 38.11352539 11.27605469 38.11352539 11.95605469 38.11352539 C11.95605469 37.45352539 11.95605469 36.79352539 11.95605469 36.11352539 C10.47105469 36.07485352 10.47105469 36.07485352 8.95605469 36.03540039 C1.52526242 35.75231363 -4.73765951 35.44136859 -11.04394531 31.11352539 C-11.3571875 30.4496582 -11.67042969 29.78579102 -11.99316406 29.10180664 C-13.28808663 26.65156283 -14.51864105 26.12364709 -17.04394531 25.11352539 C-17.07112223 23.05109922 -17.09042112 20.98856836 -17.10644531 18.92602539 C-17.11804688 17.7774707 -17.12964844 16.62891602 -17.14160156 15.44555664 C-17.05587363 12.52051953 -16.72243554 9.95036248 -16.04394531 7.11352539 C-15.38394531 7.44352539 -14.72394531 7.77352539 -14.04394531 8.11352539 C-14.20894531 8.77352539 -14.37394531 9.43352539 -14.54394531 10.11352539 C-15.7184166 17.16035312 -15.48919196 21.26333483 -11.82128906 27.35180664 C-6.336441 32.78843626 0.68404865 32.57862542 7.92089844 32.62524414 C8.95420792 32.64319534 9.9875174 32.66114655 11.05213928 32.67964172 C14.33257034 32.73355765 17.61285744 32.76758081 20.89355469 32.80102539 C23.12599651 32.83421493 25.35841939 32.8687061 27.59082031 32.90454102 C33.04591703 32.99170904 38.50036997 33.05193923 43.95605469 33.11352539 C43.95605469 22.55352539 43.95605469 11.99352539 43.95605469 1.11352539 C37.24766043 1.18763717 30.54057168 1.27057296 23.83276367 1.37597656 C21.55255983 1.40915906 19.27227516 1.43721163 16.99194336 1.45996094 C13.70749587 1.49362921 10.42378455 1.54595265 7.13964844 1.60180664 C6.12583603 1.60819656 5.11202362 1.61458649 4.06748962 1.62117004 C-1.72558082 1.74055875 -5.89356867 2.41421268 -11.04394531 5.11352539 C-11.04394531 4.45352539 -11.04394531 3.79352539 -11.04394531 3.11352539 C-10.38394531 3.11352539 -9.72394531 3.11352539 -9.04394531 3.11352539 C-9.04394531 2.45352539 -9.04394531 1.79352539 -9.04394531 1.11352539 C-5.9579345 0.21065788 -3.21033526 -0.00810691 0 0 Z " fill="#534BC8" transform="translate(169.0439453125,91.886474609375)"/>
<path d="M0 0 C8.25 0.33 16.5 0.66 25 1 C25.061875 4.196875 25.12375 7.39375 25.1875 10.6875 C25.22846802 12.18543091 25.22846802 12.18543091 25.27026367 13.71362305 C25.31612889 18.6083792 25.31441772 22.10462817 22 26 C18.88028121 28.8126643 16.89069274 29.37676482 12.71775818 29.38768005 C11.11311707 29.402537 11.11311707 29.402537 9.47605896 29.41769409 C8.30760941 29.41319244 7.13915985 29.4086908 5.93530273 29.40405273 C4.0835997 29.41434761 4.0835997 29.41434761 2.19448853 29.42485046 C-1.18778551 29.44001626 -4.56950851 29.44161285 -7.95177579 29.43590808 C-10.77504564 29.43281819 -13.59826554 29.4389062 -16.42152828 29.44494683 C-23.08013339 29.45899168 -29.73861019 29.45743022 -36.3972168 29.44604492 C-43.26950205 29.43455405 -50.1413975 29.44865535 -57.0136314 29.4754414 C-62.91352578 29.49757754 -68.81329759 29.50424081 -74.71323055 29.49836498 C-78.23731158 29.4949903 -81.76114252 29.49744434 -85.28518867 29.51461601 C-89.21184795 29.53291503 -93.13802506 29.51891955 -97.06469727 29.50170898 C-98.82040794 29.51621094 -98.82040794 29.51621094 -100.61158752 29.53100586 C-101.67852844 29.52117172 -102.74546936 29.51133759 -103.84474182 29.50120544 C-104.77332284 29.50099616 -105.70190386 29.50078688 -106.6586237 29.50057125 C-109 29 -109 29 -110.82220364 26.96867466 C-111.21087644 26.31901202 -111.59954924 25.66934938 -112 25 C-111.25372345 25.32466248 -110.5074469 25.64932495 -109.73855591 25.98382568 C-104.52419775 27.4011368 -99.56345362 27.27836087 -94.18310547 27.25878906 C-92.40652557 27.26404602 -92.40652557 27.26404602 -90.59405518 27.26940918 C-87.3586522 27.27668604 -84.12341377 27.2750052 -80.88801336 27.26865101 C-77.49728911 27.2635737 -74.10657553 27.26828705 -70.71585083 27.27142334 C-65.02490272 27.27505695 -59.33400661 27.27027875 -53.64306641 27.26074219 C-47.06624343 27.24984831 -40.48954437 27.25339237 -33.91272438 27.264395 C-28.25992297 27.27347265 -22.60715884 27.27475113 -16.9543525 27.26951766 C-13.58069141 27.26640193 -10.20708857 27.26597791 -6.83343124 27.27259064 C-3.07490344 27.27765744 0.68338463 27.26994362 4.44189453 27.25878906 C6.11736862 27.26486176 6.11736862 27.26486176 7.82669067 27.27105713 C8.85004517 27.26541748 9.87339966 27.25977783 10.92776489 27.25396729 C11.81595476 27.25321323 12.70414463 27.25245918 13.61924934 27.25168228 C16.22142275 26.97659218 17.80269707 26.40637549 20 25 C23.21390062 20.18998245 23.3818911 16.18148906 23.1875 10.625 C23.125625 8.10875 23.06375 5.5925 23 3 C15.41 2.67 7.82 2.34 0 2 C0 1.34 0 0.68 0 0 Z " fill="#554CBB" transform="translate(181,139)"/>
<path d="M0 0 C4.13998349 -0.32470459 6.33999001 -0.4304413 9.875 1.875 C13.25049308 5.25049308 13.12868982 7.46095677 13.13671875 12.16992188 C13.13285156 12.95947266 13.12898438 13.74902344 13.125 14.5625 C13.12886719 15.35591797 13.13273437 16.14933594 13.13671875 16.96679688 C13.12663067 22.87336933 13.12663067 22.87336933 12 24 C9.15201336 24.35136505 6.31787903 24.64506674 3.4609375 24.90234375 C2.58788971 24.98496964 1.71484192 25.06759552 0.81533813 25.15272522 C-1.9977305 25.41853892 -4.81129689 25.67849502 -7.625 25.9375 C-11.28419757 26.27637407 -14.94306135 26.61853037 -18.6015625 26.96484375 C-19.94078011 27.09119202 -19.94078011 27.09119202 -21.30705261 27.22009277 C-27.83082266 27.85037176 -34.30963155 28.66343381 -40.79272461 29.62280273 C-45.86246577 30.21903856 -50.90478069 30.17078947 -56 30 C-52.98354433 28.28692428 -50.56846508 27.67719414 -47.12109375 27.40234375 C-46.20005859 27.32306641 -45.27902344 27.24378906 -44.33007812 27.16210938 C-43.37552734 27.08798828 -42.42097656 27.01386719 -41.4375 26.9375 C-39.54010501 26.78310538 -37.64295317 26.62568467 -35.74609375 26.46484375 C-34.90747803 26.399021 -34.0688623 26.33319824 -33.20483398 26.26538086 C-30.8278615 26.05406128 -30.8278615 26.05406128 -28 25 C-25.05686422 24.70805061 -22.12472576 24.45895755 -19.17578125 24.24609375 C-18.31438034 24.18092056 -17.45297943 24.11574738 -16.56547546 24.04859924 C-13.81473902 23.84130916 -11.06364108 23.63934155 -8.3125 23.4375 C-6.44723936 23.29787645 -4.5820046 23.15790672 -2.71679688 23.01757812 C1.85517818 22.67436807 6.42748457 22.33593088 11 22 C10.67 17.71 10.34 13.42 10 9 C8.35 8.34 6.7 7.68 5 7 C5 5.35 5 3.7 5 2 C2.525 1.505 2.525 1.505 0 1 C0 0.67 0 0.34 0 0 Z " fill="#5951C0" transform="translate(149,17)"/>
<path d="M0 0 C3 1 3 1 4.25 2.75 C5.19775773 5.5932732 4.77094629 7.12647291 4 10 C3.9175 10.845625 3.835 11.69125 3.75 12.5625 C2.62440932 16.2206697 1.32955553 17.05048591 -2 19 C-6.04958559 19.60131209 -10.07227344 19.55711007 -14.16015625 19.5390625 C-15.34218124 19.55085541 -16.52420624 19.56264832 -17.74205017 19.57479858 C-21.51566751 19.61008772 -25.28873105 19.61923228 -29.0625 19.625 C-32.83967332 19.64133372 -36.61659849 19.66335189 -40.3936615 19.69662476 C-42.74301254 19.71627672 -45.09247745 19.72558729 -47.44190979 19.72354126 C-49.03892982 19.73397964 -49.03892982 19.73397964 -50.66821289 19.74462891 C-51.60355362 19.74588776 -52.53889435 19.74714661 -53.50257874 19.7484436 C-56.17279531 20.01740506 -57.78175623 20.49718677 -60 22 C-60.33 22.99 -60.66 23.98 -61 25 C-61.66 25 -62.32 25 -63 25 C-62.34 27.31 -61.68 29.62 -61 32 C-61.99 32 -62.98 32 -64 32 C-64.19171003 30.63064262 -64.32606026 29.2532139 -64.4375 27.875 C-64.55931641 26.72644531 -64.55931641 26.72644531 -64.68359375 25.5546875 C-63.74505034 22.04721668 -62.04760211 20.5687538 -59.28144836 18.29037476 C-54.79547861 15.75313472 -49.92423577 16.23772579 -44.8984375 16.3359375 C-43.74381012 16.33171783 -42.58918274 16.32749817 -41.39956665 16.32315063 C-37.72405148 16.31230822 -34.05034716 16.340336 -30.375 16.375 C-26.69275907 16.39904807 -23.01132506 16.41423919 -19.32901001 16.40542603 C-17.04183274 16.40085011 -14.75451625 16.41555439 -12.46762085 16.45175171 C-6.3682965 16.47470764 -6.3682965 16.47470764 -0.81884766 14.18994141 C1.71086189 11.1441032 1.93121564 8.92070838 2 5 C1.18028284 2.15097933 1.18028284 2.15097933 0 0 Z " fill="#645CC6" transform="translate(86,88)"/>
<path d="M0 0 C2.31282587 3.46923881 2.42478586 4.92205575 2 9 C0.9375 10.875 0.9375 10.875 -1 12 C-4.5 12.4375 -4.5 12.4375 -8 12 C-10 10.375 -10 10.375 -11 8 C-10.92897215 4.5196355 -10.61415498 2.70514091 -8.3125 0.0625 C-5.13778084 -1.39615475 -3.30121799 -1.00471852 0 0 Z " fill="#564DC6" transform="translate(173,103)"/>
<path d="M0 0 C0 0.33 0 0.66 0 1 C-0.804375 1.12375 -1.60875 1.2475 -2.4375 1.375 C-3.283125 1.58125 -4.12875 1.7875 -5 2 C-5.33 2.66 -5.66 3.32 -6 4 C-13.11362598 6.44933744 -20.51861473 7.51999962 -28 8 C-28 8.66 -28 9.32 -28 10 C-29.37285156 10.29003906 -29.37285156 10.29003906 -30.7734375 10.5859375 C-32.55621094 10.97652344 -32.55621094 10.97652344 -34.375 11.375 C-35.55835937 11.63023438 -36.74171875 11.88546875 -37.9609375 12.1484375 C-41.08196967 12.75523965 -41.08196967 12.75523965 -43 15 C-45.10202068 15.64307102 -47.23290215 16.19409544 -49.375 16.6875 C-51.08816406 17.09548828 -51.08816406 17.09548828 -52.8359375 17.51171875 C-55.72980868 17.95830381 -57.29816991 17.99155833 -60 17 C-57.19800007 15.51705031 -54.46676141 14.43726718 -51.43432617 13.51953125 C-50.53626755 13.24584717 -49.63820892 12.97216309 -48.7129364 12.69018555 C-47.74934708 12.40054932 -46.78575775 12.11091309 -45.79296875 11.8125 C-44.79421219 11.50932861 -43.79545563 11.20615723 -42.76643372 10.89379883 C-39.5744619 9.92584098 -36.38099187 8.96292955 -33.1875 8 C-31.04873226 7.35187875 -28.91005928 6.70344474 -26.77148438 6.0546875 C-16.05290723 2.80744117 -16.05290723 2.80744117 -12.37216187 1.71240234 C-10.87458225 1.26265258 -9.38048233 0.80098814 -7.89175415 0.32275391 C-4.65375384 -0.69086441 -3.31299754 -1.10433251 0 0 Z " fill="#5E56C7" transform="translate(149,19)"/>
<path d="M0 0 C2 1 4 2 6 3 C8.66830134 3.12767557 11.31241853 3.19620765 13.98217773 3.22119141 C14.80670441 3.2326973 15.63123108 3.24420319 16.48074341 3.25605774 C19.21498861 3.29283476 21.94925719 3.3224272 24.68359375 3.3515625 C26.57927282 3.37467134 28.47494847 3.39806161 30.37062073 3.42172241 C34.347718 3.47021907 38.32483594 3.51514321 42.30200195 3.55761719 C47.40455476 3.61241666 52.50694721 3.67625174 57.60935879 3.74279213 C61.52545725 3.79283058 65.44160045 3.8379711 69.35777473 3.88163376 C71.23929738 3.90322587 73.12080279 3.92637718 75.00228691 3.9510994 C77.63097392 3.9849257 80.25964815 4.01214194 82.88842773 4.03759766 C83.66931259 4.04897263 84.45019745 4.0603476 85.25474548 4.07206726 C88.45106832 4.0970259 90.94309957 4.01896681 94 3 C94.495 7.455 94.495 7.455 95 12 C93.53515625 10.73046875 92.0703125 9.4609375 90.60546875 8.19140625 C86.86602256 5.41639144 82.73056335 5.86143985 78.30322266 5.87402344 C77.52077682 5.8721553 76.73833099 5.87028717 75.93217468 5.86836243 C74.23304193 5.86435938 72.53390381 5.86228368 70.83476639 5.86190033 C67.22236105 5.85848456 63.61013566 5.83712321 59.9977932 5.81666946 C53.27161652 5.77864249 46.54563239 5.74738651 39.81933594 5.74951172 C35.14071793 5.75029851 30.46275911 5.72695038 25.7843132 5.6876297 C24.00218036 5.67716396 22.21997149 5.67564991 20.43782425 5.68328094 C17.9430121 5.69289839 15.4501981 5.67173187 12.95556641 5.64355469 C12.2208461 5.65375137 11.48612579 5.66394806 10.72914124 5.67445374 C6.68709886 5.59266378 5.1371949 5.11627614 2.0027771 2.45977783 C1.01140244 1.24218781 1.01140244 1.24218781 0 0 Z " fill="#574CBF" transform="translate(23,121)"/>
<path d="M0 0 C0 0.66 0 1.32 0 2 C-2.9296875 2.92773438 -2.9296875 2.92773438 -5.859375 3.85546875 C-8.81204289 5.43417622 -10.13744472 7.22049442 -12 10 C-12.63549565 13.17793092 -12.63549565 13.17793092 -12.609375 16.61328125 C-12.63999023 17.73774658 -12.67060547 18.86221191 -12.70214844 20.02075195 C-12.71793945 21.43702881 -12.73373047 22.85330566 -12.75 24.3125 C-12.8325 28.829375 -12.915 33.34625 -13 38 C0.2 38 13.4 38 27 38 C27 38.99 27 39.98 27 41 C26.34749268 40.84152588 25.69498535 40.68305176 25.02270508 40.51977539 C21.22870641 39.86737065 17.4755131 39.76782648 13.63671875 39.68359375 C12.84473587 39.66281265 12.05275299 39.64203156 11.23677063 39.62062073 C8.72043072 39.55552196 6.20399128 39.49642577 3.6875 39.4375 C1.97590139 39.394277 0.26431265 39.35066152 -1.44726562 39.30664062 C-5.63140984 39.19988153 -9.81565362 39.09850365 -14 39 C-14.0992011 34.67673967 -14.17162265 30.35408976 -14.21972656 26.0300293 C-14.23978825 24.56051079 -14.26704478 23.09107159 -14.30175781 21.62182617 C-14.35052141 19.50419513 -14.37302161 17.38762313 -14.390625 15.26953125 C-14.41157227 13.99698486 -14.43251953 12.72443848 -14.45410156 11.41333008 C-13.92284421 7.42004562 -12.80915852 5.82544916 -10 3 C-7.9296875 1.85546875 -7.9296875 1.85546875 -5.875 1.1875 C-5.19179688 0.95417969 -4.50859375 0.72085938 -3.8046875 0.48046875 C-2 0 -2 0 0 0 Z " fill="#635BC3" transform="translate(58,45)"/>
<path d="M0 0 C4.29 0 8.58 0 13 0 C12.34 1.32 11.68 2.64 11 4 C11 4.66 11 5.32 11 6 C15.95 6 20.9 6 26 6 C26 6.33 26 6.66 26 7 C22.06256167 7.05797565 18.12523281 7.09358789 14.1875 7.125 C13.06794922 7.14175781 11.94839844 7.15851563 10.79492188 7.17578125 C9.72177734 7.18222656 8.64863281 7.18867188 7.54296875 7.1953125 C6.0583313 7.21102295 6.0583313 7.21102295 4.54370117 7.22705078 C2 7 2 7 -1 5 C-0.67 3.35 -0.34 1.7 0 0 Z " fill="#E1E0F8" transform="translate(180,133)"/>
<path d="M0 0 C0 0.33 0 0.66 0 1 C-3.3 1.66 -6.6 2.32 -10 3 C-7.36 3.33 -4.72 3.66 -2 4 C-2 4.33 -2 4.66 -2 5 C-15.2 5 -28.4 5 -42 5 C-42 4.67 -42 4.34 -42 4 C-37.30508314 3.4242372 -32.6094551 2.85481004 -27.91308594 2.29101562 C-26.31847866 2.09870767 -24.72407207 1.90472743 -23.12988281 1.70898438 C-20.82669123 1.42649029 -18.52282371 1.15019528 -16.21875 0.875 C-15.51633179 0.78750488 -14.81391357 0.70000977 -14.09020996 0.60986328 C-9.36252774 0.05317121 -4.76071983 -0.07467796 0 0 Z " fill="#EDEBFC" transform="translate(128,44)"/>
<path d="M0 0 C0 0.99 0 1.98 0 3 C-3.38052274 4.69026137 -7.22260142 4.24444959 -10.9453125 4.31640625 C-11.8303244 4.33718735 -12.7153363 4.35796844 -13.62716675 4.37937927 C-16.45969741 4.44486598 -19.29232225 4.50375562 -22.125 4.5625 C-24.04297857 4.60568606 -25.96094754 4.64930037 -27.87890625 4.69335938 C-32.58584051 4.80054647 -37.29286967 4.9018164 -42 5 C-42.66 6.65 -43.32 8.3 -44 10 C-44.66 10 -45.32 10 -46 10 C-45.67 12.97 -45.34 15.94 -45 19 C-47.50859858 16.49140142 -47.34896928 14.70076146 -47.55859375 11.265625 C-46.6904515 7.74448859 -44.77525206 5.24608611 -42 3 C-38.93495188 2.41519067 -36.64780748 2.20449899 -33.59375 2.265625 C-32.79142944 2.25666199 -31.98910889 2.24769897 -31.16247559 2.23846436 C-28.60756054 2.21442234 -26.05491934 2.23024671 -23.5 2.25 C-20.94567979 2.24855498 -18.39176698 2.23862555 -15.83752441 2.21868896 C-14.25153656 2.20853616 -12.66541701 2.21014039 -11.07946777 2.22515869 C-6.93470497 2.22227702 -3.72726843 1.86363422 0 0 Z " fill="#5950BE" transform="translate(114,145)"/>
<path d="M0 0 C3.84676357 -0.30170695 6.29880611 -0.3868656 9.71875 1.5 C12.37568665 4.4117114 12.52763586 6.15902208 12.43945312 10.0390625 C12.39755859 10.76867188 12.35566406 11.49828125 12.3125 12.25 C12.27866211 13.36761719 12.27866211 13.36761719 12.24414062 14.5078125 C12.18543561 16.339409 12.09575757 18.16996653 12 20 C11.67 20 11.34 20 11 20 C10.67 16.37 10.34 12.74 10 9 C7.525 8.01 7.525 8.01 5 7 C5 5.35 5 3.7 5 2 C3.35 1.67 1.7 1.34 0 1 C0 0.67 0 0.34 0 0 Z " fill="#564ECA" transform="translate(149,17)"/>
<path d="M0 0 C0 0.66 0 1.32 0 2 C-7.36485056 5.83829513 -14.88296359 7.4609001 -23 9 C-24.66692331 9.33204756 -26.33369571 9.66485985 -28 10 C-28.33 9.34 -28.66 8.68 -29 8 C-25.19243977 6.85720004 -21.38383436 5.71796126 -17.57421875 4.58203125 C-16.27802682 4.19499198 -14.98212614 3.80697591 -13.68652344 3.41796875 C-11.82563669 2.85941775 -9.96361456 2.3046538 -8.1015625 1.75 C-6.42054443 1.24726562 -6.42054443 1.24726562 -4.70556641 0.734375 C-2 0 -2 0 0 0 Z " fill="#5C54C4" transform="translate(88,36)"/>
<path d="M0 0 C0.99 0.33 1.98 0.66 3 1 C-0.02674004 3.96853351 -2.4628548 4.34127964 -6.63702393 4.33988953 C-7.36008728 4.32440567 -8.08315063 4.30892181 -8.828125 4.29296875 C-9.95163361 4.28660149 -9.95163361 4.28660149 -11.09783936 4.28010559 C-13.48226375 4.26335746 -15.86583253 4.22571397 -18.25 4.1875 C-19.86977943 4.17244809 -21.48957215 4.15876057 -23.109375 4.14648438 C-27.07324466 4.1134668 -31.03647743 4.06171246 -35 4 C-35 3.67 -35 3.34 -35 3 C-34.04130005 2.96241577 -34.04130005 2.96241577 -33.06323242 2.92407227 C-30.10453255 2.80642853 -27.14602406 2.68448222 -24.1875 2.5625 C-23.18267578 2.52318359 -22.17785156 2.48386719 -21.14257812 2.44335938 C-9.87775391 2.96382663 -9.87775391 2.96382663 0 0 Z " fill="#554EAF" transform="translate(216,128)"/>
<path d="M0 0 C3.0625 0.1875 3.0625 0.1875 5.0625 2.1875 C5.0625 3.1775 5.0625 4.1675 5.0625 5.1875 C4.4025 5.8475 3.7425 6.5075 3.0625 7.1875 C-0.0625 6.8125 -0.0625 6.8125 -2.9375 6.1875 C-3.31968767 4.53135343 -3.65145102 2.86292976 -3.9375 1.1875 C-2.9375 0.1875 -2.9375 0.1875 0 0 Z " fill="#4F46E4" transform="translate(167.9375,104.8125)"/>
<path d="M0 0 C0.33 0 0.66 0 1 0 C1.02684312 2.81256281 1.04676188 5.62487241 1.0625 8.4375 C1.07087891 9.23994141 1.07925781 10.04238281 1.08789062 10.86914062 C1.0965143 12.91295221 1.0522815 14.95683902 1 17 C-0.58403524 18.58403524 -2.2771638 18.21974935 -4.47265625 18.31640625 C-5.37177734 18.35830078 -6.27089844 18.40019531 -7.19726562 18.44335938 C-8.61555664 18.50233398 -8.61555664 18.50233398 -10.0625 18.5625 C-11.01189453 18.60568359 -11.96128906 18.64886719 -12.93945312 18.69335938 C-15.29281353 18.79979276 -17.64628354 18.90181008 -20 19 C-16.2762882 16.51752547 -13.13234385 16.55677028 -8.8125 16.375 C-6.234375 16.25125 -3.65625 16.1275 -1 16 C-0.67 10.72 -0.34 5.44 0 0 Z " fill="#736BCB" transform="translate(161,23)"/>
<path d="M0 0 C13.2 0 26.4 0 40 0 C40 0.99 40 1.98 40 3 C39.34298096 2.84152588 38.68596191 2.68305176 38.0090332 2.51977539 C34.29108126 1.87754256 30.61763843 1.76858603 26.85546875 1.68359375 C25.7007885 1.6524221 25.7007885 1.6524221 24.52278137 1.62062073 C22.07777333 1.55553951 19.63266317 1.49643409 17.1875 1.4375 C15.52407823 1.39427532 13.86066656 1.35065979 12.19726562 1.30664062 C8.13161352 1.19990093 4.06585929 1.09851829 0 1 C0 0.67 0 0.34 0 0 Z " fill="#564FB7" transform="translate(45,83)"/>
<path d="M0 0 C0 0.66 0 1.32 0 2 C-7.59 2 -15.18 2 -23 2 C-23 1.67 -23 1.34 -23 1 C-19.91792919 0.63421676 -16.83424623 0.28442175 -13.75 -0.0625 C-12.87730469 -0.16626953 -12.00460938 -0.27003906 -11.10546875 -0.37695312 C-10.26113281 -0.47041016 -9.41679688 -0.56386719 -8.546875 -0.66015625 C-7.77182617 -0.74918213 -6.99677734 -0.83820801 -6.19824219 -0.92993164 C-3.92884036 -1.00226819 -2.16317911 -0.65714106 0 0 Z " fill="#E6E2FD" transform="translate(109,47)"/>
<path d="M0 0 C0.66 0.66 1.32 1.32 2 2 C-5.03905044 2.93854006 -11.90272572 3.10808032 -19 3 C-13.15588321 -0.06535763 -6.5479224 -0.77265484 0 0 Z " fill="#6259C5" transform="translate(112,44)"/>
<path d="M0 0 C0.66 0 1.32 0 2 0 C2.33 2.97 2.66 5.94 3 9 C1.53515625 7.73046875 0.0703125 6.4609375 -1.39453125 5.19140625 C-3.10712971 3.79128769 -3.10712971 3.79128769 -6 3 C-6 2.34 -6 1.68 -6 1 C-4.7934375 1.0309375 -4.7934375 1.0309375 -3.5625 1.0625 C-1.06645115 1.29633621 -1.06645115 1.29633621 0 0 Z " fill="#5B53CC" transform="translate(115,124)"/>
<path d="M0 0 C0.33 0.66 0.66 1.32 1 2 C-3.455 2.495 -3.455 2.495 -8 3 C-8.33 5.31 -8.66 7.62 -9 10 C-9.66 9.34 -10.32 8.68 -11 8 C-10.85532052 4.60003226 -10.57183202 2.65654787 -8.3125 0.0625 C-5.17069634 -1.38103141 -3.27264446 -0.94543062 0 0 Z " fill="#6C63C3" transform="translate(173,103)"/>
<path d="M0 0 C-2.67550292 2.67550292 -4.94879894 2.83209389 -8.625 3.625 C-9.81351562 3.88539062 -11.00203125 4.14578125 -12.2265625 4.4140625 C-13.14179687 4.60742188 -14.05703125 4.80078125 -15 5 C-15.33 4.34 -15.66 3.68 -16 3 C-13.89936424 2.30178583 -11.79434263 1.61675528 -9.6875 0.9375 C-8.51574219 0.55464844 -7.34398438 0.17179687 -6.13671875 -0.22265625 C-3 -1 -3 -1 0 0 Z " fill="#675FC7" transform="translate(75,41)"/>
<path d="M0 0 C0 3.10551666 -0.5393715 4.35261084 -2 7 C-2.66 7 -3.32 7 -4 7 C-3.34 9.31 -2.68 11.62 -2 14 C-2.99 14 -3.98 14 -5 14 C-5.78774617 5.96498906 -5.78774617 5.96498906 -2.5 1.9375 C-1.2625 0.9784375 -1.2625 0.9784375 0 0 Z " fill="#5D55BF" transform="translate(27,106)"/>
<path d="M0 0 C0.99 0.33 1.98 0.66 3 1 C0.50968916 3.07525903 -1.29089974 4.00649557 -4.55859375 3.9765625 C-7.05338223 3.71469818 -9.52365349 3.39910051 -12 3 C-12 2.67 -12 2.34 -12 2 C-11.21753906 1.93941406 -10.43507812 1.87882813 -9.62890625 1.81640625 C-8.61699219 1.73261719 -7.60507813 1.64882812 -6.5625 1.5625 C-5.55316406 1.48128906 -4.54382813 1.40007812 -3.50390625 1.31640625 C-1.06359221 1.26788532 -1.06359221 1.26788532 0 0 Z " fill="#5A51C1" transform="translate(216,128)"/>
<path d="M0 0 C0.33 0 0.66 0 1 0 C2.35384615 6.4 2.35384615 6.4 0.5625 9.4375 C0.046875 9.953125 -0.46875 10.46875 -1 11 C-1.66 10.34 -2.32 9.68 -3 9 C-2.34 8.01 -1.68 7.02 -1 6 C-0.60986284 4.0103005 -0.26797351 2.00980131 0 0 Z " fill="#6860D1" transform="translate(118,135)"/>
<path d="M0 0 C-0.33 2.64 -0.66 5.28 -1 8 C-1.99 7.67 -2.98 7.34 -4 7 C-4 5.02 -4 3.04 -4 1 C-2 0 -2 0 0 0 Z " fill="#544ACD" transform="translate(181,131)"/>
<path d="M0 0 C0 0.66 0 1.32 0 2 C-0.99 2 -1.98 2 -3 2 C-3.33 2.99 -3.66 3.98 -4 5 C-4.99 3.68 -5.98 2.36 -7 1 C-4.53721199 -0.231394 -2.7204945 -0.07159196 0 0 Z " fill="#ECEEF6" transform="translate(224,86)"/>
<path d="M0 0 C0.66 0.66 1.32 1.32 2 2 C-0.97 4.475 -0.97 4.475 -4 7 C-4.66 6.01 -5.32 5.02 -6 4 C-5.38125 3.896875 -4.7625 3.79375 -4.125 3.6875 C-1.63473516 3.12474627 -1.63473516 3.12474627 0 0 Z " fill="#5E56C1" transform="translate(203,161)"/>
<path d="M0 0 C0.66 0.99 1.32 1.98 2 3 C1.34 3.66 0.68 4.32 0 5 C-0.40047444 7.32275177 -0.7397104 9.65739357 -1 12 C-1.33 12 -1.66 12 -2 12 C-2.28571429 3.42857143 -2.28571429 3.42857143 0 0 Z " fill="#C8C6F5" transform="translate(155,101)"/>
</svg>
